<svg id="Слой_1" data-name="Слой 1" xmlns="http://www.w3.org/2000/svg" viewBox="0 0 97.85816 95.44169"><defs><style>.cls-1{fill:#231e1b;fill-rule:evenodd;}</style></defs><path class="cls-1" d="M49.59539,2.27946A48.93374,48.93374,0,0,0,34.1326,97.637c2.44654.44875,3.33952-1.06181,3.33952-2.35851,0-1.16154-.04235-4.23854-.06608-8.32178-13.6104,2.95685-16.48223-6.5589-16.48223-6.5589-2.22487-5.65238-5.43253-7.15724-5.43253-7.15724-4.44248-3.03585.33612-2.97427.33612-2.97427,4.91018.346,7.49455,5.04233,7.49455,5.04233,4.36469,7.47713,11.45164,5.31806,14.23968,4.06552A10.45448,10.45448,0,0,1,40.66807,72.833c-10.865-1.23483-22.28722-5.43251-22.28722-24.18226a18.9129,18.9129,0,0,1,5.03632-13.12952c-.50312-1.23783-2.1822-6.21257.47969-12.949,0,0,4.10817-1.31562,13.45512,5.0159a46.37717,46.37717,0,0,1,24.49885,0c9.34123-6.33152,13.4419-5.0159,13.4419-5.0159,2.66939,6.73642.99,11.71116.4869,12.949A18.88082,18.88082,0,0,1,80.809,48.65073c0,18.79661-11.43993,22.93272-22.34009,24.14411,1.75687,1.51057,3.3218,4.49685,3.3218,9.061,0,6.54118-.06007,11.81839-.06007,13.42268,0,1.30841.88129,2.83069,3.36445,2.3528A48.93636,48.93636,0,0,0,49.59539,2.27946Z" transform="translate(-0.66948 -2.27946)"/></svg>